<mxfile host="app.diagrams.net" modified="2023-10-23T07:17:34.077Z" agent="Mozilla/5.0 (Windows NT 10.0; Win64; x64) AppleWebKit/537.36 (KHTML, like Gecko) Chrome/118.0.0.0 Safari/537.36 Edg/118.0.2088.61" etag="vlZrOqeiRlon9RETJUrb" version="22.0.6" type="device">
  <diagram name="PÃ¡gina-1" id="__9TFWSAjYoQkonrNvrP">
    <mxGraphModel dx="1158" dy="681" grid="1" gridSize="10" guides="1" tooltips="1" connect="1" arrows="1" fold="1" page="1" pageScale="1" pageWidth="827" pageHeight="1169" math="0" shadow="0">
      <root>
        <mxCell id="0" />
        <mxCell id="1" parent="0" />
        <mxCell id="6uLaM1wDi8WMGdKcv9eB-1" value="" style="whiteSpace=wrap;html=1;aspect=fixed;" vertex="1" parent="1">
          <mxGeometry x="220" y="80" width="350" height="350" as="geometry" />
        </mxCell>
        <mxCell id="6uLaM1wDi8WMGdKcv9eB-2" value="TITULO" style="rounded=0;whiteSpace=wrap;html=1;" vertex="1" parent="1">
          <mxGeometry x="220" y="80" width="350" height="80" as="geometry" />
        </mxCell>
        <mxCell id="6uLaM1wDi8WMGdKcv9eB-3" value="" style="rounded=0;whiteSpace=wrap;html=1;" vertex="1" parent="1">
          <mxGeometry x="220" y="350" width="350" height="80" as="geometry" />
        </mxCell>
        <mxCell id="6uLaM1wDi8WMGdKcv9eB-4" value="IMG Y FRASE" style="rounded=1;whiteSpace=wrap;html=1;" vertex="1" parent="1">
          <mxGeometry x="332.5" y="210" width="125" height="90" as="geometry" />
        </mxCell>
        <mxCell id="6uLaM1wDi8WMGdKcv9eB-11" value="" style="endArrow=none;dashed=1;html=1;dashPattern=1 3;strokeWidth=4;rounded=0;" edge="1" parent="1">
          <mxGeometry width="50" height="50" relative="1" as="geometry">
            <mxPoint x="330" y="210" as="sourcePoint" />
            <mxPoint x="460" y="210" as="targetPoint" />
          </mxGeometry>
        </mxCell>
        <mxCell id="6uLaM1wDi8WMGdKcv9eB-12" value="" style="endArrow=none;dashed=1;html=1;dashPattern=1 3;strokeWidth=4;rounded=0;" edge="1" parent="1">
          <mxGeometry width="50" height="50" relative="1" as="geometry">
            <mxPoint x="327.5" y="300" as="sourcePoint" />
            <mxPoint x="457.5" y="300" as="targetPoint" />
          </mxGeometry>
        </mxCell>
        <mxCell id="6uLaM1wDi8WMGdKcv9eB-13" value="" style="endArrow=none;html=1;rounded=0;" edge="1" parent="1">
          <mxGeometry width="50" height="50" relative="1" as="geometry">
            <mxPoint x="460" y="215" as="sourcePoint" />
            <mxPoint x="460" y="295" as="targetPoint" />
          </mxGeometry>
        </mxCell>
        <mxCell id="6uLaM1wDi8WMGdKcv9eB-14" value="" style="endArrow=none;html=1;rounded=0;" edge="1" parent="1">
          <mxGeometry width="50" height="50" relative="1" as="geometry">
            <mxPoint x="330" y="220" as="sourcePoint" />
            <mxPoint x="330" y="300" as="targetPoint" />
          </mxGeometry>
        </mxCell>
      </root>
    </mxGraphModel>
  </diagram>
</mxfile>
